# xmcd CD database file
#
# Track frame offsets:
#	150
#	8590
#	21630
#	37212
#	59062
#	73258
#	85132
#	102867
#	116587
#	130185
#	140438
#	154294
#	171071
#	189808
#	207703
#	222403
#
# Disc length: 3183 seconds
#
# Revision: 0
# Processed by: cddbd v1.5.2PL0 Copyright (c) Steve Scherf et al.
# Submitted via: CDex 1.79
#
DISCID=f20c6d10
DTITLE=Matthew Ford and his big band - Live and Swingin'
DYEAR=2015
DGENRE=Jazz
TTITLE0=It Only Takes A Moment
TTITLE1=Swingin' Down The Lane
TTITLE2=Do Nothing Till You Hear From Me
TTITLE3=Portrait Of My Love/Walk Away (medley)
TTITLE4=Spiderman
TTITLE5=Walking My Baby Back Home
TTITLE6=If I Never Sing Another Song
TTITLE7=For Once In My Life
TTITLE8=My Kind Of Town
TTITLE9=Boulevard of Broken Dreams
TTITLE10=Sway
TTITLE11=Moonlight In Vermont
TTITLE12=Mack The Knife
TTITLE13=Nancy With The Laughing Face
TTITLE14=Artificial Flowers
TTITLE15=I Can't Stop Loving You
EXTD=YEAR: 2015
EXTT0=
EXTT1=
EXTT2=
EXTT3=
EXTT4=
EXTT5=
EXTT6=
EXTT7=
EXTT8=
EXTT9=
EXTT10=
EXTT11=
EXTT12=
EXTT13=
EXTT14=
EXTT15=
PLAYORDER=
